<svg width="36" height="37" viewBox="0 0 36 37" fill="none" xmlns="http://www.w3.org/2000/svg">
<path d="M24.5773 13.8517C24.4243 13.4579 24.2415 13.1767 23.9462 12.8814C23.6509 12.5861 23.3696 12.4032 22.9759 12.2502C22.6783 12.1349 22.2317 11.9971 21.4093 11.9594C20.5194 11.9189 20.2528 11.9105 18 11.9105C15.7472 11.9105 15.48 11.9189 14.5907 11.9594C13.7683 11.9971 13.3211 12.1344 13.0241 12.2502C12.6304 12.4032 12.3491 12.5861 12.0538 12.8814C11.7585 13.1767 11.5757 13.4579 11.4227 13.8517C11.3074 14.1493 11.1696 14.5959 11.1324 15.4183C11.0919 16.3081 11.0835 16.5747 11.0835 18.8276C11.0835 21.0804 11.0919 21.3476 11.1324 22.2369C11.1701 23.0592 11.3074 23.5064 11.4227 23.8034C11.5757 24.1972 11.7585 24.4784 12.0538 24.7738C12.3491 25.0691 12.6304 25.2519 13.0241 25.4049C13.3217 25.5202 13.7683 25.658 14.5907 25.6951C15.48 25.7356 15.7472 25.7441 18 25.7441C20.2528 25.7441 20.52 25.7356 21.4093 25.6951C22.2317 25.6574 22.6789 25.5202 22.9759 25.4049C23.3696 25.2519 23.6509 25.0691 23.9462 24.7738C24.2415 24.4784 24.4243 24.1972 24.5773 23.8034C24.6926 23.5059 24.8304 23.0592 24.8676 22.2369C24.9081 21.347 24.9165 21.0804 24.9165 18.8276C24.9165 16.5747 24.9081 16.3076 24.8676 15.4183C24.8304 14.5959 24.6932 14.1493 24.5773 13.8517ZM18 23.1611C15.6071 23.1611 13.6671 21.221 13.6671 18.8281C13.6671 16.4353 15.6071 14.4952 18 14.4952C20.3929 14.4952 22.3329 16.4353 22.3329 18.8281C22.3329 21.221 20.3929 23.1611 18 23.1611ZM22.5039 15.3367C21.9448 15.3367 21.4914 14.8833 21.4914 14.3242C21.4914 13.7651 21.9448 13.3117 22.5039 13.3117C23.0631 13.3117 23.5164 13.7651 23.5164 14.3242C23.5164 14.8833 23.0631 15.3367 22.5039 15.3367ZM0 0.828125V36.8281H36V0.828125H0ZM26.3869 22.3066C26.3458 23.2049 26.2035 23.8181 25.9948 24.3547C25.7794 24.9093 25.4908 25.3801 25.0217 25.8492C24.5526 26.3184 24.0823 26.6069 23.5271 26.8224C22.9905 27.0311 22.3774 27.1734 21.4791 27.2144C20.5791 27.2561 20.2916 27.2656 18 27.2656C15.7084 27.2656 15.4209 27.2561 14.5215 27.215C13.6232 27.1739 13.0101 27.0316 12.4734 26.8229C11.9188 26.6075 11.448 26.3189 10.9789 25.8498C10.5097 25.3807 10.2212 24.9104 10.0057 24.3552C9.79706 23.8186 9.65475 23.2055 9.61369 22.3072C9.57206 21.4072 9.5625 21.1197 9.5625 18.8281C9.5625 16.5365 9.57206 16.2491 9.61312 15.3491C9.65419 14.4508 9.7965 13.8376 10.0052 13.301C10.2206 12.7464 10.5092 12.2756 10.9783 11.8064C11.4474 11.3373 11.9177 11.0487 12.4729 10.8333C13.0095 10.6246 13.6232 10.4823 14.5209 10.4412C15.4209 10.4002 15.7084 10.3906 18 10.3906C20.2916 10.3906 20.5791 10.4002 21.4785 10.4412C22.3768 10.4823 22.9899 10.6246 23.5266 10.8333C24.0812 11.0487 24.552 11.3373 25.0211 11.8064C25.4902 12.2756 25.7788 12.7458 25.9943 13.301C26.2029 13.8376 26.3453 14.4508 26.3863 15.3491C26.4279 16.2491 26.4375 16.5365 26.4375 18.8281C26.4375 21.1197 26.4279 21.4072 26.3869 22.3066ZM18 16.0156C16.4469 16.0156 15.1875 17.2751 15.1875 18.8281C15.1875 20.3812 16.4469 21.6406 18 21.6406C19.5531 21.6406 20.8125 20.3812 20.8125 18.8281C20.8125 17.2751 19.5531 16.0156 18 16.0156Z" fill="black"/>
</svg>
