<svg width="36" height="37" viewBox="0 0 36 37" fill="none" xmlns="http://www.w3.org/2000/svg">
<path d="M0 0.828125V36.8281H36V0.828125H0ZM18 27.8281C17.1 27.8281 16.2563 27.7156 15.4688 27.4344C15.8062 26.8719 16.2 26.1969 16.3687 25.5219C16.4813 25.1281 16.9875 23.0469 16.9875 23.0469C17.325 23.6656 18.225 24.1719 19.1812 24.1719C22.05 24.1719 24.0188 21.5281 24.0188 17.9844C24.0188 15.3406 21.7687 12.8094 18.3375 12.8094C14.0625 12.8094 11.925 15.9031 11.925 18.4344C11.925 20.0094 12.4875 21.3594 13.7812 21.8656C14.0063 21.9219 14.175 21.8656 14.2312 21.6406C14.2875 21.4719 14.3438 21.0781 14.4 20.9094C14.4563 20.6844 14.4563 20.6281 14.2875 20.4031C13.95 19.9531 13.6687 19.4469 13.6687 18.6594C13.6687 16.4094 15.3563 14.3281 18.1125 14.3281C20.5312 14.3281 21.8813 15.7906 21.8813 17.7594C21.8813 20.3469 20.7563 22.5406 19.0125 22.5406C18.0562 22.5406 17.3813 21.7531 17.6062 20.7969C17.8875 19.6719 18.3938 18.4344 18.3938 17.5906C18.3938 16.8594 18 16.2406 17.1562 16.2406C16.2 16.2406 15.4125 17.2531 15.4125 18.5469C15.4125 19.3906 15.6937 19.9531 15.6937 19.9531C15.6937 19.9531 14.6812 24.1156 14.5125 24.8469C14.3438 25.5219 14.3438 26.3094 14.3438 26.9281C11.1938 25.6906 9 22.5406 9 18.8281C9 13.8781 13.05 9.82812 18 9.82812C22.95 9.82812 27 13.8781 27 18.8281C27 23.7781 22.95 27.8281 18 27.8281Z" fill="black"/>
</svg>
