<svg width="36" height="37" viewBox="0 0 36 37" fill="none" xmlns="http://www.w3.org/2000/svg">
<path fill-rule="evenodd" clip-rule="evenodd" d="M36 0.828125H0V36.8281H36V0.828125ZM25.6899 15.6804C24.8175 14.7781 23.7606 14.3281 22.5214 14.3281H18.8876V16.0606H22.5214C23.2819 16.0606 23.9299 16.3419 24.4648 16.9055C25.0284 17.441 25.3097 18.0884 25.3097 18.8495C25.3097 19.61 25.0284 20.2721 24.4648 20.8351C23.9293 21.3706 23.2819 21.6378 22.5214 21.6378H18.8876V23.3703H22.5214C23.7606 23.3703 24.8164 22.9338 25.6899 22.0602C26.5635 21.1597 27 20.0887 27 18.8495C27 17.6097 26.5635 16.5534 25.6899 15.6804ZM21.5916 17.9619H14.4084V19.7366H21.5916V17.9619ZM10.6903 18.8495C10.6903 18.0884 10.9575 17.441 11.493 16.9055C12.0566 16.3424 12.7181 16.0606 13.4786 16.0606H17.1124V14.3281H13.4786C12.2394 14.3281 11.1836 14.7787 10.3101 15.6804C9.4365 16.5534 9 17.6097 9 18.8495C9 20.0887 9.4365 21.1591 10.3101 22.0608C11.1831 22.9338 12.2394 23.3703 13.4786 23.3703H17.1124V21.6378H13.4786C12.7181 21.6378 12.0561 21.3706 11.493 20.8351C10.9575 20.2715 10.6903 19.61 10.6903 18.8495Z" fill="black"/>
</svg>
